<svg width="32" height="32" viewBox="0 0 32 32" fill="none" xmlns="http://www.w3.org/2000/svg">
<path d="M19.3408 19.3096C14.2728 18.3141 8.96132 18.9536 4.20604 21.2277C1.83971 22.3594 0.333496 24.7494 0.333496 27.3725V29.3333C0.333496 30.622 1.37816 31.6666 2.66683 31.6666H22.6156L18.623 27.674L18.6036 27.6548L18.5987 27.6498C16.4674 25.5185 16.4674 22.0629 18.5987 19.9317C18.8315 19.6989 19.08 19.4914 19.3408 19.3096Z" fill="#FFF04B"/>
<path fill-rule="evenodd" clip-rule="evenodd" d="M14.667 0.333252C10.4608 0.333252 7.04574 3.72052 7.00078 7.91608L5.68006 16.0055C5.63686 16.2701 5.70175 16.541 5.86019 16.7574C6.01863 16.9738 6.25733 17.1174 6.52269 17.1561L9.71246 17.6213C12.9981 18.1005 16.3359 18.1005 19.6215 17.6213L22.8113 17.1561C23.0767 17.1174 23.3154 16.9738 23.4738 16.7574C23.6322 16.541 23.6971 16.2701 23.6539 16.0055L22.3333 7.91607C22.2882 3.72052 18.8733 0.333252 14.667 0.333252Z" fill="#FFF04B"/>
<path fill-rule="evenodd" clip-rule="evenodd" d="M24.6668 20.307C26.2616 19.2936 28.4006 19.4828 29.7923 20.8745C31.403 22.485 31.403 25.0962 29.7924 26.7069L25.3742 31.1253C25.1866 31.3128 24.9323 31.4182 24.6671 31.4182C24.4018 31.4182 24.1475 31.3128 23.9599 31.1253L19.5616 26.7269L19.5415 26.707C17.9308 25.0964 17.9308 22.485 19.5415 20.8745C20.9332 19.4828 23.072 19.2936 24.6668 20.307ZM23.9598 22.2886C23.1302 21.4592 21.7852 21.4592 20.9556 22.2886C20.1262 23.1182 20.1262 24.4632 20.9556 25.2928L20.9695 25.3065L20.9759 25.3128L24.667 29.004L28.3782 25.2928C29.2076 24.4632 29.2076 23.1182 28.3782 22.2886C27.5486 21.4592 26.2035 21.4592 25.374 22.2886C25.1864 22.4762 24.932 22.5816 24.6668 22.5816C24.4016 22.5816 24.1474 22.4762 23.9598 22.2886Z" fill="#FFF04B"/>
</svg>
