<svg width="32" height="32" viewBox="0 0 32 32" fill="none" xmlns="http://www.w3.org/2000/svg">
<g clip-path="url(#clip0_49_14625)">
<path d="M28.5499 3.45C26.2549 1.145 23.2399 0 20.2199 0C17.1999 0 14.1749 1.145 11.8849 3.445C9.65488 5.675 8.42988 8.63 8.42988 11.785C8.42988 14.395 9.27988 16.88 10.8399 18.92C10.8649 18.955 10.8849 18.98 10.9149 19.01C11.0049 19.12 11.0899 19.23 11.1849 19.345L9.63988 20.89C8.77488 20.515 7.72988 20.68 7.02488 21.385L0.694883 27.71C0.244883 28.16 0.00488281 28.755 0.00488281 29.39C0.00488281 30.025 0.244883 30.62 0.694883 31.07L0.934883 31.31C1.37988 31.75 1.97488 32.005 2.61488 32C3.24988 32 3.84488 31.75 4.28488 31.31L10.6149 24.99C11.0549 24.54 11.3049 23.945 11.3049 23.31C11.3049 22.98 11.2349 22.66 11.1049 22.37L12.6499 20.825C12.7599 20.92 12.8699 21.01 12.9899 21.095C17.5999 24.69 24.3049 24.365 28.5449 20.12C33.1449 15.52 33.1449 8.045 28.5499 3.45ZM26.2599 13.235C26.2049 13.33 24.6749 16.1 20.4899 18.53C20.4049 18.575 20.3099 18.605 20.2199 18.605C20.1199 18.605 20.0349 18.58 19.9449 18.53C15.7649 16.1 14.2249 13.33 14.1649 13.22C12.2949 10.05 13.2849 7.455 14.9999 6.39C16.4199 5.505 18.5699 5.55 20.2199 7.525C21.8649 5.55 24.0199 5.505 25.4349 6.385C27.1499 7.46 28.1349 10.05 26.2599 13.235Z" fill="#FFF04B"/>
<path d="M24.8602 7.30999C23.7102 6.58999 21.9652 6.75499 20.6702 8.73999C20.4702 9.04499 19.9652 9.04499 19.7652 8.73999C18.9152 7.43499 17.8702 6.92499 16.9302 6.92499C16.4402 6.92499 15.9652 7.06499 15.5702 7.31499C14.2902 8.11499 13.5902 10.135 15.1002 12.685C15.1202 12.73 16.5152 15.21 20.2152 17.44C23.9102 15.21 25.3052 12.73 25.3152 12.7C26.8402 10.125 26.1452 8.10499 24.8602 7.30999Z" fill="#FFF04B"/>
</g>
<defs>
<clipPath id="clip0_49_14625">
<rect width="32" height="32" fill="white"/>
</clipPath>
</defs>
</svg>
