<svg width="32" height="32" viewBox="0 0 32 32" fill="none" xmlns="http://www.w3.org/2000/svg">
<path fill-rule="evenodd" clip-rule="evenodd" d="M11.6665 14.6667V17.3334C11.6665 18.1294 11.9825 18.8921 12.5452 19.4547C13.1078 20.0174 13.8705 20.3334 14.6665 20.3334H17.3332C18.1292 20.3334 18.8918 20.0174 19.4545 19.4547C20.0172 18.8921 20.3332 18.1294 20.3332 17.3334V14.6667C20.3332 13.8707 20.0172 13.1081 19.4545 12.5454C18.8918 11.9827 18.1292 11.6667 17.3332 11.6667H14.6665C13.8705 11.6667 13.1078 11.9827 12.5452 12.5454C11.9825 13.1081 11.6665 13.8707 11.6665 14.6667Z" fill="#FFF04B"/>
<path fill-rule="evenodd" clip-rule="evenodd" d="M1.6665 4.66675V7.33342C1.6665 8.12942 1.9825 8.89208 2.54517 9.45475C3.10784 10.0174 3.8705 10.3334 4.6665 10.3334H7.33317C8.12917 10.3334 8.89184 10.0174 9.4545 9.45475C10.0172 8.89208 10.3332 8.12942 10.3332 7.33342V4.66675C10.3332 3.87075 10.0172 3.10808 9.4545 2.54541C8.89184 1.98275 8.12917 1.66675 7.33317 1.66675H4.6665C3.8705 1.66675 3.10784 1.98275 2.54517 2.54541C1.9825 3.10808 1.6665 3.87075 1.6665 4.66675Z" fill="#FFF04B"/>
<path fill-rule="evenodd" clip-rule="evenodd" d="M21.6665 24.6667V27.3334C21.6665 28.1294 21.9825 28.8921 22.5452 29.4547C23.1078 30.0174 23.8705 30.3334 24.6665 30.3334H27.3332C28.1292 30.3334 28.8918 30.0174 29.4545 29.4547C30.0172 28.8921 30.3332 28.1294 30.3332 27.3334V24.6667C30.3332 23.8707 30.0172 23.1081 29.4545 22.5454C28.8918 21.9827 28.1292 21.6667 27.3332 21.6667H24.6665C23.8705 21.6667 23.1078 21.9827 22.5452 22.5454C21.9825 23.1081 21.6665 23.8707 21.6665 24.6667Z" fill="#FFF04B"/>
<path fill-rule="evenodd" clip-rule="evenodd" d="M9.33301 7H26.6663C27.109 7 27.5317 7.176 27.845 7.488C28.157 7.80133 28.333 8.224 28.333 8.66667V13.3333C28.333 13.776 28.157 14.1987 27.845 14.512C27.5317 14.824 27.109 15 26.6663 15H22.6663C22.1143 15 21.6663 15.448 21.6663 16C21.6663 16.552 22.1143 17 22.6663 17H26.6663C27.6383 17 28.5717 16.6133 29.2597 15.9267C29.9463 15.2387 30.333 14.3053 30.333 13.3333C30.333 11.8893 30.333 10.1107 30.333 8.66667C30.333 7.69467 29.9463 6.76133 29.2597 6.07333C28.5717 5.38667 27.6383 5 26.6663 5C21.221 5 9.33301 5 9.33301 5C8.78101 5 8.33301 5.448 8.33301 6C8.33301 6.552 8.78101 7 9.33301 7Z" fill="#FFF04B"/>
<path fill-rule="evenodd" clip-rule="evenodd" d="M17.3332 25H5.33317C4.8905 25 4.46784 24.824 4.1545 24.512C3.8425 24.1987 3.6665 23.776 3.6665 23.3333C3.6665 21.8893 3.6665 20.1107 3.6665 18.6667C3.6665 18.224 3.8425 17.8013 4.1545 17.488C4.46784 17.176 4.8905 17 5.33317 17H12.6665C13.2185 17 13.6665 16.552 13.6665 16C13.6665 15.448 13.2185 15 12.6665 15H5.33317C4.36117 15 3.42784 15.3867 2.73984 16.0733C2.05317 16.7613 1.6665 17.6947 1.6665 18.6667V23.3333C1.6665 24.3053 2.05317 25.2387 2.73984 25.9267C3.42784 26.6133 4.36117 27 5.33317 27H17.3332C17.8852 27 18.3332 26.552 18.3332 26C18.3332 25.448 17.8852 25 17.3332 25Z" fill="#FFF04B"/>
<path fill-rule="evenodd" clip-rule="evenodd" d="M26.04 17.9601L24.0813 16.0001L26.04 14.0401C26.4307 13.6507 26.4307 13.0161 26.04 12.6267C25.6507 12.2361 25.016 12.2361 24.6267 12.6267L21.96 15.2934C21.5693 15.6841 21.5693 16.3161 21.96 16.7067L24.6267 19.3734C25.016 19.7641 25.6507 19.7641 26.04 19.3734C26.4307 18.9841 26.4307 18.3494 26.04 17.9601Z" fill="#FFF04B"/>
<path fill-rule="evenodd" clip-rule="evenodd" d="M16.7063 29.3734L19.373 26.7067C19.7637 26.3161 19.7637 25.6841 19.373 25.2934L16.7063 22.6267C16.317 22.2361 15.6823 22.2361 15.293 22.6267C14.9023 23.0161 14.9023 23.6507 15.293 24.0401L17.2517 26.0001L15.293 27.9601C14.9023 28.3494 14.9023 28.9841 15.293 29.3734C15.6823 29.7641 16.317 29.7641 16.7063 29.3734Z" fill="#FFF04B"/>
</svg>
