<svg width="32" height="32" viewBox="0 0 32 32" fill="none" xmlns="http://www.w3.org/2000/svg">
<path d="M4.08964 13.0177C4.08964 12.6314 4.10445 12.2484 4.13351 11.8694C1.61039 13.9563 1.43167e-05 17.1095 1.43167e-05 20.6319C1.43167e-05 22.2169 0.319327 23.7473 0.949764 25.1857L0.0123268 30.911C-0.0364232 31.2089 0.0611393 31.512 0.274577 31.7254C0.451827 31.9026 0.690889 32 0.937389 32C0.987764 32 1.03845 31.9959 1.08895 31.9877L6.8142 31.0502C8.25258 31.6806 9.78295 32 11.3681 32C14.8906 32 18.044 30.3896 20.1308 27.8664C19.7505 27.8952 19.3676 27.9104 18.9823 27.9104C10.7705 27.9104 4.08964 21.2296 4.08964 13.0177Z" fill="#FFF04B"/>
<path d="M18.9825 0C11.8045 0 5.96484 5.83975 5.96484 13.0177C5.96484 20.1956 11.8046 26.0354 18.9825 26.0354C20.8123 26.0354 22.5786 25.6637 24.2371 24.9302L30.9112 26.0231C30.9618 26.0313 31.0123 26.0354 31.0628 26.0354C31.3093 26.0354 31.5484 25.938 31.7256 25.7607C31.939 25.5473 32.0367 25.2442 31.9878 24.9464L30.895 18.2722C31.6285 16.6137 32.0002 14.8474 32.0002 13.0177C32.0002 5.83975 26.1605 0 18.9825 0ZM23.4142 10.9998L18.4685 16.3131C18.2952 16.4993 18.0535 16.6071 17.7991 16.6117C17.7935 16.6117 17.7878 16.6118 17.7823 16.6118C17.5338 16.6118 17.2953 16.5132 17.1194 16.3372L14.5741 13.7919C14.208 13.4259 14.208 12.8322 14.5741 12.4661C14.9402 12.1 15.5338 12.1 15.8999 12.4661L17.7581 14.3243L22.0417 9.72225C22.3945 9.34319 22.9878 9.32213 23.3667 9.67475C23.7458 10.0276 23.767 10.6208 23.4142 10.9998Z" fill="#FFF04B"/>
</svg>
