<svg width="32" height="32" viewBox="0 0 32 32" fill="none" xmlns="http://www.w3.org/2000/svg">
<g clip-path="url(#clip0_49_14614)">
<path d="M17.5336 15.3999C16.4002 16.9332 14.8669 18.1332 13.0669 18.8666H14.0002V20.1999H11.8669V19.2666C11.0669 19.4666 10.2002 19.5999 9.26689 19.5999C8.86689 19.5999 8.46689 19.5999 8.06689 19.5332V30.1332C8.06689 30.9999 8.80023 31.7332 9.66689 31.7332H30.0002C30.8669 31.7332 31.6002 30.9999 31.6002 30.1332V15.4666H17.5336V15.3999ZM14.0002 28.7999H11.8669V27.4666H14.0002V28.7999ZM14.0002 24.4666H11.8669V23.1332H14.0002V24.4666ZM18.6669 28.7999H16.5336V27.4666H18.6669V28.7999ZM18.6669 24.4666H16.5336V23.1332H18.6669V24.4666ZM18.6669 20.1332H16.5336V18.7999H18.6669V20.1332ZM23.2669 28.7999H21.1336V27.4666H23.2669V28.7999ZM23.2669 24.4666H21.1336V23.1332H23.2669V24.4666ZM23.2669 20.1332H21.1336V18.7999H23.2669V20.1332ZM27.9336 28.7999H25.8002V27.4666H27.9336V28.7999ZM27.9336 24.4666H25.8002V23.1332H27.9336V24.4666ZM27.9336 20.1332H25.8002V18.7999H27.9336V20.1332Z" fill="#FFF04B"/>
<path d="M9.26683 18.1999C14.2002 18.1999 18.2002 14.1999 18.2002 9.26659C18.2002 4.33325 14.2002 0.333252 9.26683 0.333252C4.3335 0.333252 0.333496 4.33325 0.333496 9.26659C0.333496 14.1999 4.3335 18.1999 9.26683 18.1999ZM8.60016 1.46659H9.9335V8.59992H14.7335V9.93325H8.60016V1.46659Z" fill="#FFF04B"/>
<path d="M25.4667 11C26.2667 11 26.9333 10.3333 26.9333 9.5333V5.59997C26.9333 4.79997 26.2667 4.1333 25.4667 4.1333C24.6667 4.1333 24 4.79997 24 5.59997V9.5333C24 10.3333 24.6667 11 25.4667 11Z" fill="#FFF04B"/>
<path d="M31.6668 14.0666V9.7333C31.6668 8.86663 30.9335 8.1333 30.0668 8.1333H28.2668V9.59997C28.2668 11.1333 27.0002 12.4 25.4668 12.4C23.9335 12.4 22.6668 11.1333 22.6668 9.59997V8.1333H19.4668C19.5335 8.5333 19.5335 8.9333 19.5335 9.3333C19.5335 11.0666 19.1335 12.6666 18.3335 14.1333H31.6668V14.0666Z" fill="#FFF04B"/>
</g>
<defs>
<clipPath id="clip0_49_14614">
<rect width="32" height="32" fill="white"/>
</clipPath>
</defs>
</svg>
