<svg width="32" height="32" viewBox="0 0 32 32" fill="none" xmlns="http://www.w3.org/2000/svg">
<g clip-path="url(#clip0_50_22)">
<path d="M31.8067 30.8601L29.8934 28.9467C30.2313 28.407 30.3906 27.7745 30.3487 27.139C30.3068 26.5036 30.0659 25.8975 29.6601 25.4067C29.3672 26.4168 28.8237 27.3364 28.0801 28.0801C27.3364 28.8237 26.4168 29.3672 25.4067 29.6601C25.8981 30.0648 26.504 30.305 27.1392 30.3468C27.7743 30.3887 28.4066 30.2301 28.9467 29.8934L30.8601 31.8067C30.9865 31.9307 31.1564 32.0001 31.3334 32.0001C31.5104 32.0001 31.6804 31.9307 31.8067 31.8067C31.9316 31.6809 32.0017 31.5107 32.0017 31.3334C32.0017 31.1561 31.9316 30.9859 31.8067 30.8601Z" fill="#FFF04B"/>
<path d="M8.39352 4.11336L6.28019 2.00003L7.14019 1.14003C7.20277 1.07796 7.25247 1.00415 7.28645 0.922822C7.32043 0.841498 7.33801 0.754265 7.33819 0.666128C7.33837 0.577991 7.32114 0.490687 7.2875 0.409224C7.25385 0.327762 7.20445 0.253746 7.14213 0.191424C7.07981 0.129102 7.00579 0.0797006 6.92433 0.0460552C6.84286 0.0124098 6.75556 -0.00481722 6.66742 -0.00463728C6.57929 -0.00445733 6.49205 0.013126 6.41073 0.0471038C6.32941 0.0810815 6.25559 0.130785 6.19352 0.193361L0.193524 6.19336C0.0686229 6.31923 -0.00146484 6.48937 -0.00146484 6.66669C-0.00146484 6.84402 0.0686229 7.01416 0.193524 7.14003C0.319908 7.26395 0.489853 7.33337 0.666857 7.33337C0.843862 7.33337 1.01381 7.26395 1.14019 7.14003L2.00019 6.28003L4.11352 8.39336L8.39352 4.11336Z" fill="#FFF04B"/>
<path d="M14.4717 4.8621L12.4717 2.8621C12.4098 2.80017 12.3363 2.75104 12.2555 2.71752C12.1746 2.684 12.0879 2.66675 12.0003 2.66675C11.9128 2.66675 11.8261 2.684 11.7452 2.71752C11.6644 2.75104 11.5909 2.80017 11.529 2.8621L2.86235 11.5288C2.80042 11.5906 2.75129 11.6641 2.71777 11.745C2.68425 11.8259 2.66699 11.9126 2.66699 12.0001C2.66699 12.0877 2.68425 12.1743 2.71777 12.2552C2.75129 12.3361 2.80042 12.4096 2.86235 12.4714L4.86235 14.4714C4.92423 14.5334 4.99771 14.5825 5.07858 14.616C5.15945 14.6495 5.24614 14.6668 5.33368 14.6668C5.42123 14.6668 5.50791 14.6495 5.58878 14.616C5.66966 14.5825 5.74313 14.5334 5.80502 14.4714L14.4717 5.80477C14.5336 5.7429 14.5827 5.66942 14.6163 5.58855C14.6498 5.50767 14.667 5.42098 14.667 5.33344C14.667 5.24589 14.6498 5.1592 14.6163 5.07833C14.5827 4.99746 14.5336 4.92398 14.4717 4.8621Z" fill="#FFF04B"/>
<path d="M14.5536 7.60669L7.60693 14.5534L9.0536 16H22.9469L14.5536 7.60669Z" fill="#FFF04B"/>
<path d="M28.5734 23.6666C28.5761 23.0216 28.4508 22.3825 28.2048 21.7863C27.9587 21.1901 27.5968 20.6486 27.1401 20.1933L24.2801 17.3333H10.3867L13.7221 20.6685L14.8621 19.5285C14.9878 19.4071 15.1562 19.3399 15.331 19.3414C15.5058 19.3429 15.673 19.413 15.7966 19.5366C15.9202 19.6602 15.9903 19.8275 15.9918 20.0023C15.9934 20.177 15.9262 20.3455 15.8047 20.4712L14.6647 21.6112L15.722 22.6685L16.862 21.5285C16.9877 21.407 17.1561 21.3398 17.3309 21.3413C17.5057 21.3429 17.6729 21.413 17.7965 21.5366C17.9201 21.6602 17.9902 21.8274 17.9918 22.0022C17.9933 22.177 17.9261 22.3454 17.8047 22.4711L16.6647 23.6111L17.7219 24.6684L18.8619 23.5284C18.9877 23.4069 19.1561 23.3398 19.3309 23.3413C19.5057 23.3428 19.6729 23.4129 19.7965 23.5365C19.9201 23.6601 19.9902 23.8273 19.9917 24.0021C19.9932 24.1769 19.926 24.3453 19.8046 24.4711L18.6646 25.6111L19.7219 26.6683L20.8619 25.5283C20.9876 25.4069 21.156 25.3397 21.3308 25.3412C21.5056 25.3427 21.6728 25.4128 21.7964 25.5364C21.92 25.66 21.9901 25.8273 21.9916 26.0021C21.9932 26.1769 21.926 26.3453 21.8045 26.471L20.7003 27.5753C21.4276 28.1294 22.2954 28.4691 23.2056 28.5559C24.1158 28.6428 25.0322 28.4734 25.8511 28.0668C26.6701 27.6602 27.359 27.0327 27.8401 26.2551C28.3211 25.4775 28.5751 24.5809 28.5734 23.6666Z" fill="#FFF04B"/>
</g>
<defs>
<clipPath id="clip0_50_22">
<rect width="32" height="32" fill="white"/>
</clipPath>
</defs>
</svg>
