<svg width="15" height="11" viewBox="0 0 15 11" fill="none" xmlns="http://www.w3.org/2000/svg">
<path d="M14.3277 3.52246C14.4371 3.44043 14.6012 3.52246 14.6012 3.65918V9.2373C14.6012 9.97559 13.9996 10.5498 13.2887 10.5498H1.91367C1.17539 10.5498 0.601172 9.97559 0.601172 9.2373V3.65918C0.601172 3.52246 0.737891 3.44043 0.847266 3.52246C1.47617 4.01465 2.26914 4.61621 5.0582 6.63965C5.63242 7.0498 6.6168 7.95215 7.60117 7.95215C8.5582 7.95215 9.56992 7.0498 10.1168 6.63965C12.9059 4.61621 13.6988 4.01465 14.3277 3.52246ZM7.60117 7.0498C6.94492 7.07715 6.04258 6.25684 5.57773 5.92871C1.94102 3.30371 1.66758 3.05762 0.847266 2.40137C0.683203 2.29199 0.601172 2.10059 0.601172 1.88184V1.3623C0.601172 0.651367 1.17539 0.0498047 1.91367 0.0498047H13.2887C13.9996 0.0498047 14.6012 0.651367 14.6012 1.3623V1.88184C14.6012 2.10059 14.4918 2.29199 14.3277 2.40137C13.5074 3.05762 13.234 3.30371 9.59727 5.92871C9.13242 6.25684 8.23008 7.07715 7.60117 7.0498Z" fill="#0F0F0F"/>
</svg>
