<svg width="12" height="15" viewBox="0 0 12 15" fill="none" xmlns="http://www.w3.org/2000/svg">
<path d="M5.45312 14.4766C1.46094 8.73438 0.75 8.13281 0.75 6C0.75 3.10156 3.07422 0.75 6 0.75C8.89844 0.75 11.25 3.10156 11.25 6C11.25 8.13281 10.5117 8.73438 6.51953 14.4766C6.27344 14.8594 5.69922 14.8594 5.45312 14.4766ZM6 8.1875C7.20312 8.1875 8.1875 7.23047 8.1875 6C8.1875 4.79688 7.20312 3.8125 6 3.8125C4.76953 3.8125 3.8125 4.79688 3.8125 6C3.8125 7.23047 4.76953 8.1875 6 8.1875Z" fill="#0F0F0F"/>
</svg>
