<svg width="15" height="15" viewBox="0 0 15 15" fill="none" xmlns="http://www.w3.org/2000/svg">
<path d="M14.5509 10.0078C14.7696 10.1172 14.9337 10.3633 14.9337 10.6367C14.9337 10.6641 14.9337 10.7188 14.9337 10.7734L14.2774 13.6172C14.1954 13.918 13.9493 14.1094 13.6485 14.1094C6.62119 14.1094 0.961035 8.44922 0.961035 1.42188C0.961035 1.12109 1.15244 0.875 1.45322 0.792969L4.29697 0.136719C4.35166 0.136719 4.40635 0.109375 4.43369 0.109375C4.70713 0.109375 4.95322 0.273438 5.0626 0.519531L6.3751 3.58203C6.40244 3.66406 6.42979 3.74609 6.42979 3.82812C6.42979 4.04688 6.32041 4.23828 6.18369 4.34766L4.51572 5.71484C5.52744 7.84766 7.22275 9.54297 9.35557 10.5547L10.7228 8.88672C10.8321 8.75 11.0235 8.64062 11.2149 8.64062C11.3243 8.64062 11.4063 8.66797 11.4884 8.69531L14.5509 10.0078Z" fill="#0F0F0F"/>
</svg>
