<svg width="12" height="19" viewBox="0 0 12 19" fill="none" xmlns="http://www.w3.org/2000/svg">
<path d="M9.9375 0.75C10.8516 0.75 11.625 1.52344 11.625 2.4375V17.0625C11.625 18.0117 10.8516 18.75 9.9375 18.75H2.0625C1.11328 18.75 0.375 18.0117 0.375 17.0625V2.4375C0.375 1.52344 1.11328 0.75 2.0625 0.75H9.9375ZM6 17.625C6.59766 17.625 7.125 17.1328 7.125 16.5C7.125 15.9023 6.59766 15.375 6 15.375C5.36719 15.375 4.875 15.9023 4.875 16.5C4.875 17.1328 5.36719 17.625 6 17.625ZM9.9375 13.8281V2.85938C9.9375 2.64844 9.72656 2.4375 9.51562 2.4375H2.48438C2.23828 2.4375 2.0625 2.64844 2.0625 2.85938V13.8281C2.0625 14.0742 2.23828 14.25 2.48438 14.25H9.51562C9.72656 14.25 9.9375 14.0742 9.9375 13.8281Z" fill="#0F0F0F"/>
</svg>
