<svg width="75" height="53" viewBox="0 0 75 53" fill="none" xmlns="http://www.w3.org/2000/svg">
<path d="M0.730576 41.4917C0.730576 41.4917 1.45847 46.6754 3.70831 48.9585C6.5537 51.9474 10.3034 51.8591 11.9688 52.168C17.9573 52.7415 37.4449 52.9179 37.467 52.9179C37.467 52.9179 53.2269 52.8959 63.7262 52.1349C65.182 51.9694 68.3803 51.9474 71.2367 48.9474C73.4755 46.6644 74.2144 41.4807 74.2144 41.4807C74.2144 41.4807 74.9534 35.3926 74.9534 29.3045V23.6024C74.9534 17.5143 74.2144 11.4262 74.2144 11.4262C74.2144 11.4262 73.4865 6.24251 71.2367 3.95947C68.4134 0.948508 65.2151 0.92645 63.7483 0.761013C53.249 0 37.5001 0 37.5001 0C37.467 0 21.7181 0 11.2298 0.761013C9.76304 0.92645 6.56473 0.948508 3.70831 3.94844C1.45847 6.23148 0.730576 11.4152 0.730576 11.4152C0.730576 11.4152 0.124001 16.3783 0.00268555 21.8377V31.0581C0.112972 36.5065 0.730576 41.4807 0.730576 41.4807V41.4917Z" fill="#0F0F0F"/>
<path d="M29.7358 15.0769L49.9955 25.6865L29.7358 36.2188V15.0769Z" fill="white"/>
<path d="M49.6536 25.8739L49.9844 25.6754L29.7358 15.0769L47.7787 24.6387L49.6536 25.8739Z" fill="#F4F4F4"/>
</svg>
